SplineFontDB: 3.0
FontName: morfont
FullName: Morph Font
FamilyName: morfont
Weight: Medium
Copyright: Created by m03r, with FontForge 2.0 (http://fontforge.sf.net)
Version: 001.000
ItalicAngle: 0
UnderlinePosition: -48
UnderlineWidth: 24
Ascent: 800
Descent: 200
sfntRevision: 0x00010000
LayerCount: 2
Layer: 0 0 "Back"  1
Layer: 1 0 "Fore"  0
XUID: [1021 7 518490449 4308329]
FSType: 8
OS2Version: 4
OS2_WeightWidthSlopeOnly: 0
OS2_UseTypoMetrics: 1
CreationTime: 1379190464
ModificationTime: 1379432835
PfmFamily: 17
TTFWeight: 500
TTFWidth: 5
LineGap: 90
VLineGap: 0
Panose: 2 0 6 3 0 0 0 0 0 0
OS2TypoAscent: 0
OS2TypoAOffset: 1
OS2TypoDescent: 0
OS2TypoDOffset: 1
OS2TypoLinegap: 90
OS2WinAscent: 0
OS2WinAOffset: 1
OS2WinDescent: 0
OS2WinDOffset: 1
HheadAscent: 0
HheadAOffset: 1
HheadDescent: 0
HheadDOffset: 1
OS2SubXSize: 650
OS2SubYSize: 700
OS2SubXOff: 0
OS2SubYOff: 140
OS2SupXSize: 650
OS2SupYSize: 700
OS2SupXOff: 0
OS2SupYOff: 480
OS2StrikeYSize: 49
OS2StrikeYPos: 258
OS2Vendor: 'PfEd'
OS2CodePages: 00000001.00000000
OS2UnicodeRanges: 00000201.00000000.00000000.00000000
Lookup: 4 0 1 "'liga' Standard Ligatures lookup 0"  {"'liga' Standard Ligatures lookup 0 subtable"  } ['liga' ('DFLT' <'dflt' > ) ]
MarkAttachClasses: 1
DEI: 91125

StartChar: .notdef
Encoding: 65536 -1 0
Width: 500
Flags: MW
HStem: 0 50<100 400 100 450> 483 50<100 400 100 100>
VStem: 50 50<50 50 50 483> 400 50<50 483 483 483>
LayerCount: 2
Fore
SplineSet
50 0 m 1
 50 533 l 1
 450 533 l 1
 450 0 l 1
 50 0 l 1
100 50 m 1
 400 50 l 1
 400 483 l 1
 100 483 l 1
 100 50 l 1
EndSplineSet
Validated: 1
EndChar

StartChar: H
Encoding: 72 72 1
Width: 1080
GlyphClass: 2
Flags: MW
HStem: -1 21G<96 196 96 96 496 596 496 496 896 896 896 996> 657 84<196 496 196 196 596 896 596 596>
VStem: 96 100<-1 657 -1 741 -1 741> 496 100<-1 657 -1 657> 896 100<-1 657 657 657>
CounterMasks: 1 38
LayerCount: 2
Fore
SplineSet
896 657 m 1
 596 657 l 1
 596 -1 l 1
 496 -1 l 1
 496 657 l 1
 196 657 l 1
 196 -1 l 1
 96 -1 l 1
 96 741 l 1
 996 741 l 1
 996 -1 l 1
 896 -1 l 1
 896 657 l 1
EndSplineSet
Validated: 1
EndChar

StartChar: T
Encoding: 84 84 2
Width: 611
GlyphClass: 2
Flags: MW
HStem: 0 19<160 452 160 160> 620 42<144 200 200 254 356 356 356 410>
VStem: 17 24<492 492> 254 102<120 620> 569 24<492 492>
CounterMasks: 1 38
LayerCount: 2
Fore
SplineSet
254 620 m 1
 200 620 l 2
 88 620 65 601 41 492 c 1
 17 492 l 1
 23 662 l 1
 587 662 l 1
 593 492 l 1
 569 492 l 1
 546 602 524 620 410 620 c 2
 356 620 l 1
 356 109 l 2
 356 36 370 23 452 19 c 1
 452 0 l 1
 160 0 l 1
 160 19 l 1
 243 24 254 35 254 120 c 2
 254 620 l 1
EndSplineSet
Validated: 1
EndChar

StartChar: grave
Encoding: 96 96 3
Width: 611
GlyphClass: 5
Flags: MW
HStem: 105.283 155.997
VStem: 140.421 313.508
LayerCount: 2
Fore
SplineSet
453.929 227.96 m 1
 154.052 105.283 l 1
 140.421 138.604 l 1
 440.298 261.28 l 1
 453.929 227.96 l 1
EndSplineSet
Validated: 1
EndChar

StartChar: h
Encoding: 104 104 4
Width: 1080
GlyphClass: 2
Flags: MW
HStem: 0 84<190 490 590 890>
VStem: 90 100<84 84 84 742> 490 100<84 742 84 742> 890 100<84 742 0 742>
CounterMasks: 1 70
LayerCount: 2
Fore
SplineSet
190 84 m 1
 490 84 l 1
 490 742 l 1
 590 742 l 1
 590 84 l 1
 890 84 l 1
 890 742 l 1
 990 742 l 1
 990 0 l 1
 90 0 l 1
 90 742 l 1
 190 742 l 1
 190 84 l 1
EndSplineSet
Validated: 1
EndChar

StartChar: T_w1
Encoding: 1196 1196 5
Width: 611
GlyphClass: 3
Flags: MW
HStem: 0 19<160 452 160 160> 620 42<144 200 200 254 356 356 356 410>
VStem: 17 24<492 492> 254 102<120 144.898 144.898 144.898 183.794 186.626 225.521 620> 569 24<492 492>
CounterMasks: 1 38
LayerCount: 2
Fore
SplineSet
254 620 m 1
 200 620 l 2
 88 620 65 601 41 492 c 1
 17 492 l 1
 23 662 l 1
 587 662 l 1
 593 492 l 1
 569 492 l 1
 546 602 524 620 410 620 c 2
 356 620 l 1
 356 225.521 l 1
 448.298 263.28 l 1
 461.929 229.96 l 1
 356 186.626 l 1
 356 109 l 2
 356 36 370 23 452 19 c 1
 452 0 l 1
 160 0 l 1
 160 19 l 1
 243 24 254 35 254 120 c 2
 254 144.898 l 1
 162.052 107.283 l 1
 148.421 140.603 l 1
 254 183.794 l 1
 254 620 l 1
EndSplineSet
Validated: 1
Ligature2: "'liga' Standard Ligatures lookup 0 subtable" T grave
EndChar

StartChar: second_1
Encoding: 1320 1320 6
Width: 1080
GlyphClass: 3
Flags: MW
HStem: 0 84<190 490 590 890>
VStem: 90 100<84 84 84 742> 490 100<84 602.987 84 608.045 84 608.045> 890 100<84 742 0 742>
CounterMasks: 1 70
LayerCount: 2
Fore
SplineSet
190 84 m 1
 490 84 l 1
 490 608.045 l 1
 490.335 608.045 l 1
 490.054 608.467 l 1
 694.737 744.923 l 1
 728.02 695 l 1
 590 602.987 l 1
 590 84 l 1
 890 84 l 1
 890 742 l 1
 990 742 l 1
 990 0 l 1
 90 0 l 1
 90 742 l 1
 190 742 l 1
 190 84 l 1
EndSplineSet
Validated: 1
Ligature2: "'liga' Standard Ligatures lookup 0 subtable" h grave
EndChar

StartChar: second_2
Encoding: 1321 1321 7
Width: 1080
GlyphClass: 3
Flags: MW
HStem: 0 84<190 490 590 890>
VStem: 90 100<84 84 84 742> 490 100<84 455.904 528.016 602.987> 890 100<84 742 0 742>
CounterMasks: 1 70
LayerCount: 2
Fore
SplineSet
190 84 m 1
 490 84 l 1
 490 608.045 l 1
 490.335 608.045 l 1
 490.054 608.467 l 1
 694.737 744.923 l 1
 728.02 695 l 1
 590 602.987 l 1
 590 528.016 l 1
 694.737 597.84 l 1
 728.02 547.918 l 1
 590 455.904 l 1
 590 84 l 1
 890 84 l 1
 890 742 l 1
 990 742 l 1
 990 0 l 1
 90 0 l 1
 90 742 l 1
 190 742 l 1
 190 84 l 1
EndSplineSet
Validated: 1
Ligature2: "'liga' Standard Ligatures lookup 0 subtable" h grave grave
EndChar

StartChar: second_3
Encoding: 1322 1322 8
Width: 1080
GlyphClass: 3
Flags: MW
HStem: 0 84<190 190 590 890>
VStem: 90 100<84 84 84 742> 490 100<84.001 307.494 379.605 455.905 528.017 602.988> 890 100<84 742 0 742>
CounterMasks: 1 70
LayerCount: 2
Fore
SplineSet
190 84 m 1
 490 84.001 l 1
 490 608.046 l 1
 490.335 608.046 l 1
 490.054 608.468 l 1
 694.737 744.924 l 1
 728.02 695.001 l 1
 590 602.988 l 1
 590 528.017 l 1
 694.737 597.841 l 1
 728.02 547.919 l 1
 590 455.905 l 1
 590 379.605 l 1
 694.737 449.43 l 1
 728.02 399.508 l 1
 590 307.494 l 1
 590 84 l 1
 890 84 l 1
 890 742 l 1
 990 742 l 1
 990 0 l 1
 90 0 l 1
 90 742 l 1
 190 742 l 1
 190 84 l 1
EndSplineSet
Validated: 1
Ligature2: "'liga' Standard Ligatures lookup 0 subtable" h grave grave grave
EndChar

StartChar: second_4
Encoding: 1323 1323 9
Width: 1080
GlyphClass: 3
Flags: MW
HStem: 0 84<190 190 590 890>
VStem: 90 100<84 84 84 742> 490 100<84.002 159.037 231.148 307.495 379.606 455.906 528.018 602.989> 890 100<84 742 0 742>
CounterMasks: 1 70
LayerCount: 2
Fore
SplineSet
190 84 m 1
 490 84.002 l 1
 490 608.047 l 1
 490.335 608.047 l 1
 490.054 608.469 l 1
 694.737 744.925 l 1
 728.02 695.002 l 1
 590 602.989 l 1
 590 528.018 l 1
 694.737 597.842 l 1
 728.02 547.92 l 1
 590 455.906 l 1
 590 379.606 l 1
 694.737 449.431 l 1
 728.02 399.509 l 1
 590 307.495 l 1
 590 231.148 l 1
 694.737 300.973 l 1
 728.02 251.051 l 1
 590 159.037 l 1
 590 84 l 1
 890 84 l 1
 890 742 l 1
 990 742 l 1
 990 0 l 1
 90 0 l 1
 90 742 l 1
 190 742 l 1
 190 84 l 1
EndSplineSet
Validated: 1
Ligature2: "'liga' Standard Ligatures lookup 0 subtable" h grave grave grave grave
EndChar

StartChar: uni2080
Encoding: 8320 8320 11
Width: 320
Flags: W
HStem: -208 28<125.355 189.283> 182 28<123.752 193.952>
VStem: 5 75<-114.962 120.012> 230 85<-108.906 116.074>
LayerCount: 2
Fore
SplineSet
5 5 m 0
 5 169 101 210 160 210 c 0
 256 210 315 125 315 1 c 0
 315 -124 247 -208 160 -208 c 0
 100 -208 5 -165 5 5 c 0
160 182 m 0
 108 182 80 117 80 0 c 0
 80 -124 113 -180 160 -180 c 0
 207 -180 230 -106 230 0 c 0
 230 122 210 182 160 182 c 0
EndSplineSet
Validated: 1
EndChar

StartChar: uni2081
Encoding: 8321 8321 12
Width: 320
Flags: W
HStem: -200 24<67 114.051 209.326 258>
VStem: 120 81<-170.879 140.996>
LayerCount: 2
Fore
SplineSet
258 -176 m 1
 258 -200 l 1
 67 -200 l 1
 67 -176 l 1
 110 -173 120 -167 120 -144 c 2
 120 113 l 2
 120 135 118 141 112 141 c 0
 106 141 106 141 69 128 c 1
 69 151 l 1
 187 206 l 1
 201 203 l 1
 201 -140 l 2
 201 -166 212 -173 258 -176 c 1
EndSplineSet
Validated: 1
EndChar

StartChar: uni2082
Encoding: 8322 8322 13
Width: 320
Flags: W
HStem: -200 59<121 273> 143 63<78.2504 175.284>
VStem: 199 92<22.0796 120.337>
LayerCount: 2
Fore
SplineSet
15 87 m 1
 28 124 51 206 160 206 c 0
 238 206 291 163 291 100 c 0
 291 51 268 4 207 -56 c 2
 121 -141 l 1
 242 -141 l 2
 269 -141 278 -136 293 -114 c 1
 310 -121 l 1
 273 -200 l 1
 20 -200 l 1
 20 -183 l 1
 118 -76 l 2
 168 -22 199 37 199 67 c 0
 199 109 166 143 126 143 c 0
 89 143 62 121 40 73 c 1
 15 87 l 1
EndSplineSet
Validated: 1
EndChar

StartChar: uni2083
Encoding: 8323 8323 14
Width: 0
GlyphClass: 4
Flags: W
HStem: -208 48<94.6649 199.361> 150 56<87.0096 187.513>
VStem: 195 76<74.0161 140.598> 217 81<-135.936 -37.3135>
LayerCount: 2
Fore
SplineSet
217 -92 m 0xd0
 217 -24 149 -7 128 -7 c 0
 122.4 -7 117.5 -7.66699 100 -10 c 1
 100 19 l 1
 169 43 195 65 195 101 c 0
 195 132 173 150 137 150 c 0
 103 150 83 136 53 93 c 1
 28 111 l 1
 63 179 102 206 163 206 c 0
 223 206 271 169 271 123 c 0xe0
 271 95 254 72 211 41 c 1
 269 18 298 -20 298 -72 c 0
 298 -150 215 -208 104 -208 c 0
 52 -208 21 -190 21 -158 c 0
 21 -137 36 -121 56 -121 c 0
 90 -121 101 -160 149 -160 c 0
 190 -160 217 -133 217 -92 c 0xd0
EndSplineSet
Validated: 524289
EndChar

StartChar: uni2084
Encoding: 8324 8324 15
Width: 320
Flags: W
HStem: -110 57<55 190 260 315>
VStem: 190 70<-200 -110 -53 126>
LayerCount: 2
Fore
SplineSet
315 -53 m 1
 315 -110 l 1
 260 -110 l 1
 260 -200 l 1
 190 -200 l 1
 190 -110 l 1
 10 -110 l 1
 10 -61 l 1
 213 205 l 1
 260 205 l 1
 260 -53 l 1
 315 -53 l 1
190 -53 m 1
 190 126 l 1
 55 -53 l 1
 190 -53 l 1
EndSplineSet
Validated: 1
EndChar

StartChar: uni2085
Encoding: 8325 8325 16
Width: 320
Flags: W
HStem: -208 48<94.2416 203.968> 144 61<125 282.125>
VStem: 232 71<-128.031 -22.1619>
LayerCount: 2
Fore
SplineSet
303 -54 m 0
 303 -146 223 -208 103 -208 c 0
 58 -208 20 -194 20 -158 c 0
 20 -137 35 -121 55 -121 c 0
 89 -121 100 -160 148 -160 c 0
 189 -160 232 -127 232 -86 c 0
 232 -30 202 4 125 28 c 0
 97 37 70 48 49 48 c 0
 44 48 37 50 37 53 c 0
 37 55 38 56 38 58 c 2
 113 205 l 1
 265 205 l 2
 279 205 286 208 297 220 c 1
 303 216 l 1
 276 150 l 2
 274 145 272 144 260 144 c 2
 125 144 l 1
 101 107 l 1
 226 86 303 44 303 -54 c 0
EndSplineSet
Validated: 1
EndChar

StartChar: uni2086
Encoding: 8326 8326 17
Width: 320
Flags: W
HStem: -208 27<129.735 205.579> 26 39<117.359 201.796> 183 28<241.4 295>
VStem: 7 82<-126.892 26.9349> 233 80<-145.325 -3.18418>
LayerCount: 2
Fore
SplineSet
165 -208 m 0
 70 -208 7 -137 7 -31 c 0
 7 63 51 193 295 211 c 1
 295 183 l 1
 200 170 125 126 107 37 c 1
 132 61 151 65 175 65 c 0
 261 65 313 14 313 -66 c 0
 313 -150 256 -208 165 -208 c 0
152 26 m 0
 137 26 89 10 89 -54 c 0
 89 -141 122 -181 171 -181 c 0
 209 -181 233 -145 233 -86 c 0
 233 -15 203 26 152 26 c 0
EndSplineSet
Validated: 1
EndChar

StartChar: uni2087
Encoding: 8327 8327 18
Width: 320
Flags: W
HStem: 147 58<40.833 230>
VStem: 10 299
LayerCount: 2
Fore
SplineSet
309 205 m 1
 309 192 l 1
 167 -200 l 1
 96 -200 l 1
 230 147 l 1
 103 147 l 2
 65 147 52 140 22 105 c 1
 10 110 l 1
 32 205 l 1
 309 205 l 1
EndSplineSet
Validated: 1
EndChar

StartChar: uni2088
Encoding: 8328 8328 19
Width: 320
Flags: W
HStem: -208 27<113.748 203.282> 186 25<101.297 194.342>
VStem: 13 71<-160.35 -49.5384> 13 64<86.996 166.939> 225 82<-162.027 -75.4138> 225 61<73.2768 167.731>
LayerCount: 2
Fore
SplineSet
191 28 m 1xd4
 291 -26 307 -55 307 -103 c 0
 307 -166 253 -208 149 -208 c 0
 70 -208 13 -165 13 -105 c 0xe8
 13 -65 28 -48 95 0 c 1
 24 56 13 73 13 112 c 0
 13 169 70 211 152 211 c 0
 230 211 286 173 286 122 c 0
 286 83 261 59 191 28 c 1xd4
161 -43 m 1
 122 -17 l 1
 96 -43 84 -66 84 -100 c 0
 84 -151 115 -181 156 -181 c 0
 202 -181 225 -159 225 -121 c 0
 225 -91 204 -70 161 -43 c 1
163 44 m 1
 203 67 225 88 225 122 c 0
 225 163 191 186 146 186 c 0
 107 186 77 165 77 131 c 0xd4
 77 100 102 76 163 44 c 1
EndSplineSet
Validated: 1
EndChar

StartChar: uni2089
Encoding: 8329 8329 20
Width: 320
Flags: W
HStem: -210 28<24 77.5998> -64 39<117.204 201.641> 182 27<113.421 189.265>
VStem: 6 80<4.18418 146.325> 230 82<-25.9349 127.892>
LayerCount: 2
Fore
SplineSet
154 209 m 0
 249 209 312 138 312 32 c 0
 312 -62 268 -192 24 -210 c 1
 24 -182 l 1
 119 -169 194 -125 212 -36 c 1
 187 -60 168 -64 144 -64 c 0
 58 -64 6 -13 6 67 c 0
 6 151 63 209 154 209 c 0
167 -25 m 0
 182 -25 230 -9 230 55 c 0
 230 142 197 182 148 182 c 0
 110 182 86 146 86 87 c 0
 86 16 116 -25 167 -25 c 0
EndSplineSet
Validated: 1
EndChar
